# Blender 4.5.3 LTS
# www.blender.org
mtllib Sun.mtl
o Sun
v 0.091950 0.987688 -0.126558
v 0.048341 0.987688 -0.148778
v 0.000000 1.000000 -0.000000
v 0.126558 0.987688 -0.091950
v 0.000000 1.000000 -0.000000
v 0.148778 0.987688 -0.048341
v 0.000000 1.000000 -0.000000
v 0.156435 0.987688 -0.000000
v 0.000000 1.000000 -0.000000
v 0.148778 0.987688 0.048341
v 0.000000 1.000000 -0.000000
v 0.126558 0.987688 0.091950
v 0.000000 1.000000 -0.000000
v 0.091950 0.987688 0.126558
v 0.000000 1.000000 -0.000000
v 0.048341 0.987688 0.148778
v 0.000000 1.000000 -0.000000
v 0.000000 0.987688 0.156435
v 0.000000 1.000000 -0.000000
v -0.048341 0.987688 0.148778
v 0.000000 1.000000 -0.000000
v -0.091950 0.987688 0.126558
v 0.000000 1.000000 -0.000000
v -0.126558 0.987688 0.091950
v 0.000000 1.000000 -0.000000
v -0.148778 0.987688 0.048341
v 0.000000 1.000000 -0.000000
v -0.156434 0.987688 -0.000000
v 0.000000 1.000000 -0.000000
v -0.148778 0.987688 -0.048341
v 0.000000 1.000000 -0.000000
v -0.126558 0.987688 -0.091950
v 0.000000 1.000000 -0.000000
v -0.091950 0.987688 -0.126558
v 0.000000 1.000000 -0.000000
v -0.048341 0.987688 -0.148778
v 0.000000 1.000000 -0.000000
v 0.000000 0.987688 -0.156434
v 0.000000 1.000000 -0.000000
v 0.048341 0.987688 -0.148778
v 0.000000 1.000000 -0.000000
v 0.048341 -0.987688 -0.148778
v 0.091950 -0.987688 -0.126558
v 0.000000 -1.000000 0.000000
v 0.126558 -0.987688 -0.091950
v 0.000000 -1.000000 0.000000
v 0.148778 -0.987688 -0.048341
v 0.000000 -1.000000 0.000000
v 0.156435 -0.987688 0.000000
v 0.000000 -1.000000 0.000000
v 0.148778 -0.987688 0.048341
v 0.000000 -1.000000 0.000000
v 0.126558 -0.987688 0.091950
v 0.000000 -1.000000 0.000000
v 0.091950 -0.987688 0.126558
v 0.000000 -1.000000 0.000000
v 0.048341 -0.987688 0.148778
v 0.000000 -1.000000 0.000000
v 0.000000 -0.987688 0.156435
v 0.000000 -1.000000 0.000000
v -0.048341 -0.987688 0.148778
v 0.000000 -1.000000 0.000000
v -0.091950 -0.987688 0.126558
v 0.000000 -1.000000 0.000000
v -0.126558 -0.987688 0.091950
v 0.000000 -1.000000 0.000000
v -0.148778 -0.987688 0.048341
v 0.000000 -1.000000 0.000000
v -0.156434 -0.987688 0.000000
v 0.000000 -1.000000 0.000000
v -0.148778 -0.987688 -0.048341
v 0.000000 -1.000000 0.000000
v -0.126558 -0.987688 -0.091950
v 0.000000 -1.000000 0.000000
v -0.091950 -0.987688 -0.126558
v 0.000000 -1.000000 0.000000
v -0.048341 -0.987688 -0.148778
v 0.000000 -1.000000 0.000000
v 0.000000 -0.987688 -0.156434
v 0.000000 -1.000000 0.000000
v 0.048341 -0.987688 -0.148778
v 0.000000 -1.000000 0.000000
v 0.181636 0.951057 -0.250000
v 0.095492 0.951057 -0.293893
v 0.250000 0.951057 -0.181636
v 0.293893 0.951057 -0.095492
v 0.309017 0.951057 -0.000000
v 0.293893 0.951057 0.095492
v 0.250000 0.951057 0.181636
v 0.181636 0.951057 0.250000
v 0.095492 0.951057 0.293893
v 0.000000 0.951057 0.309017
v -0.095492 0.951057 0.293893
v -0.181636 0.951057 0.250000
v -0.250000 0.951057 0.181636
v -0.293893 0.951057 0.095492
v -0.309017 0.951057 -0.000000
v -0.293893 0.951057 -0.095491
v -0.250000 0.951057 -0.181636
v -0.181636 0.951057 -0.250000
v -0.095492 0.951057 -0.293893
v 0.000000 0.951057 -0.309017
v 0.095492 0.951057 -0.293893
v 0.266849 0.891007 -0.367286
v 0.140291 0.891007 -0.431771
v 0.367286 0.891007 -0.266849
v 0.431771 0.891007 -0.140291
v 0.453991 0.891007 -0.000000
v 0.431771 0.891007 0.140291
v 0.367286 0.891007 0.266849
v 0.266849 0.891007 0.367286
v 0.140291 0.891007 0.431771
v 0.000000 0.891007 0.453991
v -0.140291 0.891007 0.431771
v -0.266849 0.891007 0.367286
v -0.367286 0.891007 0.266849
v -0.431771 0.891007 0.140291
v -0.453991 0.891007 -0.000000
v -0.431771 0.891007 -0.140291
v -0.367286 0.891007 -0.266849
v -0.266849 0.891007 -0.367286
v -0.140291 0.891007 -0.431771
v 0.000000 0.891007 -0.453991
v 0.140291 0.891007 -0.431771
v 0.345492 0.809017 -0.475529
v 0.181636 0.809017 -0.559017
v 0.475529 0.809017 -0.345492
v 0.559017 0.809017 -0.181636
v 0.587786 0.809017 -0.000000
v 0.559017 0.809017 0.181636
v 0.475528 0.809017 0.345492
v 0.345492 0.809017 0.475528
v 0.181636 0.809017 0.559017
v 0.000000 0.809017 0.587785
v -0.181636 0.809017 0.559017
v -0.345492 0.809017 0.475528
v -0.475528 0.809017 0.345492
v -0.559017 0.809017 0.181636
v -0.587785 0.809017 -0.000000
v -0.559017 0.809017 -0.181636
v -0.475528 0.809017 -0.345491
v -0.345492 0.809017 -0.475528
v -0.181636 0.809017 -0.559017
v 0.000000 0.809017 -0.587785
v 0.181636 0.809017 -0.559017
v 0.415627 0.707107 -0.572062
v 0.218508 0.707107 -0.672499
v 0.572062 0.707107 -0.415627
v 0.672499 0.707107 -0.218508
v 0.707107 0.707107 -0.000000
v 0.672499 0.707107 0.218508
v 0.572062 0.707107 0.415627
v 0.415627 0.707107 0.572062
v 0.218508 0.707107 0.672499
v 0.000000 0.707107 0.707107
v -0.218508 0.707107 0.672499
v -0.415627 0.707107 0.572062
v -0.572061 0.707107 0.415627
v -0.672499 0.707107 0.218508
v -0.707107 0.707107 -0.000000
v -0.672499 0.707107 -0.218508
v -0.572061 0.707107 -0.415627
v -0.415627 0.707107 -0.572061
v -0.218508 0.707107 -0.672499
v 0.000000 0.707107 -0.707107
v 0.218508 0.707107 -0.672499
v 0.475529 0.587785 -0.654509
v 0.250000 0.587785 -0.769421
v 0.654509 0.587785 -0.475529
v 0.769421 0.587785 -0.250000
v 0.809017 0.587785 -0.000000
v 0.769421 0.587785 0.250000
v 0.654509 0.587785 0.475528
v 0.475528 0.587785 0.654509
v 0.250000 0.587785 0.769421
v 0.000000 0.587785 0.809017
v -0.250000 0.587785 0.769421
v -0.475528 0.587785 0.654509
v -0.654509 0.587785 0.475528
v -0.769421 0.587785 0.250000
v -0.809017 0.587785 -0.000000
v -0.769421 0.587785 -0.250000
v -0.654509 0.587785 -0.475528
v -0.475528 0.587785 -0.654509
v -0.250000 0.587785 -0.769421
v 0.000000 0.587785 -0.809017
v 0.250000 0.587785 -0.769421
v 0.523721 0.453991 -0.720840
v 0.275336 0.453991 -0.847398
v 0.720840 0.453991 -0.523721
v 0.847398 0.453991 -0.275336
v 0.891007 0.453991 -0.000000
v 0.847398 0.453991 0.275336
v 0.720840 0.453991 0.523721
v 0.523721 0.453991 0.720840
v 0.275336 0.453991 0.847398
v 0.000000 0.453991 0.891007
v -0.275336 0.453991 0.847398
v -0.523721 0.453991 0.720840
v -0.720840 0.453991 0.523721
v -0.847398 0.453991 0.275336
v -0.891007 0.453991 -0.000000
v -0.847398 0.453991 -0.275336
v -0.720840 0.453991 -0.523721
v -0.523721 0.453991 -0.720839
v -0.275336 0.453991 -0.847398
v 0.000000 0.453991 -0.891007
v 0.275336 0.453991 -0.847398
v 0.559017 0.309017 -0.769421
v 0.293893 0.309017 -0.904509
v 0.769421 0.309017 -0.559017
v 0.904509 0.309017 -0.293893
v 0.951057 0.309017 -0.000000
v 0.904509 0.309017 0.293893
v 0.769421 0.309017 0.559017
v 0.559017 0.309017 0.769421
v 0.293893 0.309017 0.904509
v 0.000000 0.309017 0.951057
v -0.293893 0.309017 0.904509
v -0.559017 0.309017 0.769421
v -0.769421 0.309017 0.559017
v -0.904509 0.309017 0.293893
v -0.951057 0.309017 -0.000000
v -0.904509 0.309017 -0.293893
v -0.769421 0.309017 -0.559017
v -0.559017 0.309017 -0.769421
v -0.293893 0.309017 -0.904509
v 0.000000 0.309017 -0.951057
v 0.293893 0.309017 -0.904509
v 0.580549 0.156434 -0.799057
v 0.305213 0.156434 -0.939348
v 0.799057 0.156434 -0.580549
v 0.939348 0.156434 -0.305213
v 0.987689 0.156434 -0.000000
v 0.939348 0.156434 0.305213
v 0.799057 0.156434 0.580549
v 0.580549 0.156434 0.799057
v 0.305213 0.156434 0.939348
v 0.000000 0.156434 0.987689
v -0.305213 0.156434 0.939348
v -0.580549 0.156434 0.799057
v -0.799057 0.156434 0.580549
v -0.939348 0.156434 0.305213
v -0.987688 0.156434 -0.000000
v -0.939348 0.156434 -0.305212
v -0.799057 0.156434 -0.580549
v -0.580549 0.156434 -0.799057
v -0.305212 0.156434 -0.939348
v 0.000000 0.156434 -0.987688
v 0.305213 0.156434 -0.939348
v 0.587786 -0.000000 -0.809018
v 0.309017 -0.000000 -0.951057
v 0.809017 -0.000000 -0.587786
v 0.951057 -0.000000 -0.309017
v 1.000000 0.000000 0.000000
v 0.951057 0.000000 0.309017
v 0.809017 0.000000 0.587785
v 0.587785 0.000000 0.809017
v 0.309017 0.000000 0.951057
v 0.000000 0.000000 1.000000
v -0.309017 0.000000 0.951057
v -0.587785 0.000000 0.809017
v -0.809017 0.000000 0.587785
v -0.951057 0.000000 0.309017
v -1.000000 0.000000 0.000000
v -0.951057 -0.000000 -0.309017
v -0.809017 -0.000000 -0.587785
v -0.587785 -0.000000 -0.809017
v -0.309017 -0.000000 -0.951057
v 0.000000 -0.000000 -1.000000
v 0.309017 -0.000000 -0.951057
v 0.580549 -0.156434 -0.799057
v 0.305213 -0.156434 -0.939348
v 0.799057 -0.156434 -0.580549
v 0.939348 -0.156434 -0.305213
v 0.987689 -0.156434 0.000000
v 0.939348 -0.156434 0.305213
v 0.799057 -0.156434 0.580549
v 0.580549 -0.156434 0.799057
v 0.305213 -0.156434 0.939348
v 0.000000 -0.156434 0.987689
v -0.305213 -0.156434 0.939348
v -0.580549 -0.156434 0.799057
v -0.799057 -0.156434 0.580549
v -0.939348 -0.156434 0.305213
v -0.987688 -0.156434 0.000000
v -0.939348 -0.156434 -0.305212
v -0.799057 -0.156434 -0.580549
v -0.580549 -0.156434 -0.799057
v -0.305212 -0.156434 -0.939348
v 0.000000 -0.156434 -0.987688
v 0.305213 -0.156434 -0.939348
v 0.559017 -0.309017 -0.769421
v 0.293893 -0.309017 -0.904509
v 0.769421 -0.309017 -0.559017
v 0.904509 -0.309017 -0.293893
v 0.951057 -0.309017 0.000000
v 0.904509 -0.309017 0.293893
v 0.769421 -0.309017 0.559017
v 0.559017 -0.309017 0.769421
v 0.293893 -0.309017 0.904509
v 0.000000 -0.309017 0.951057
v -0.293893 -0.309017 0.904509
v -0.559017 -0.309017 0.769421
v -0.769421 -0.309017 0.559017
v -0.904509 -0.309017 0.293893
v -0.951057 -0.309017 0.000000
v -0.904509 -0.309017 -0.293893
v -0.769421 -0.309017 -0.559017
v -0.559017 -0.309017 -0.769421
v -0.293893 -0.309017 -0.904509
v 0.000000 -0.309017 -0.951057
v 0.293893 -0.309017 -0.904509
v 0.523721 -0.453991 -0.720840
v 0.275336 -0.453991 -0.847398
v 0.720840 -0.453991 -0.523721
v 0.847398 -0.453991 -0.275336
v 0.891007 -0.453991 0.000000
v 0.847398 -0.453991 0.275336
v 0.720840 -0.453991 0.523721
v 0.523721 -0.453991 0.720840
v 0.275336 -0.453991 0.847398
v 0.000000 -0.453991 0.891007
v -0.275336 -0.453991 0.847398
v -0.523721 -0.453991 0.720840
v -0.720840 -0.453991 0.523721
v -0.847398 -0.453991 0.275336
v -0.891007 -0.453991 0.000000
v -0.847398 -0.453991 -0.275336
v -0.720840 -0.453991 -0.523721
v -0.523721 -0.453991 -0.720839
v -0.275336 -0.453991 -0.847398
v 0.000000 -0.453991 -0.891007
v 0.275336 -0.453991 -0.847398
v 0.475529 -0.587785 -0.654509
v 0.250000 -0.587785 -0.769421
v 0.654509 -0.587785 -0.475529
v 0.769421 -0.587785 -0.250000
v 0.809017 -0.587785 0.000000
v 0.769421 -0.587785 0.250000
v 0.654509 -0.587785 0.475528
v 0.475528 -0.587785 0.654509
v 0.250000 -0.587785 0.769421
v 0.000000 -0.587785 0.809017
v -0.250000 -0.587785 0.769421
v -0.475528 -0.587785 0.654509
v -0.654509 -0.587785 0.475528
v -0.769421 -0.587785 0.250000
v -0.809017 -0.587785 0.000000
v -0.769421 -0.587785 -0.250000
v -0.654509 -0.587785 -0.475528
v -0.475528 -0.587785 -0.654509
v -0.250000 -0.587785 -0.769421
v 0.000000 -0.587785 -0.809017
v 0.250000 -0.587785 -0.769421
v 0.415627 -0.707107 -0.572062
v 0.218508 -0.707107 -0.672499
v 0.572062 -0.707107 -0.415627
v 0.672499 -0.707107 -0.218508
v 0.707107 -0.707107 0.000000
v 0.672499 -0.707107 0.218508
v 0.572062 -0.707107 0.415627
v 0.415627 -0.707107 0.572062
v 0.218508 -0.707107 0.672499
v 0.000000 -0.707107 0.707107
v -0.218508 -0.707107 0.672499
v -0.415627 -0.707107 0.572062
v -0.572061 -0.707107 0.415627
v -0.672499 -0.707107 0.218508
v -0.707107 -0.707107 0.000000
v -0.672499 -0.707107 -0.218508
v -0.572061 -0.707107 -0.415627
v -0.415627 -0.707107 -0.572061
v -0.218508 -0.707107 -0.672499
v 0.000000 -0.707107 -0.707107
v 0.218508 -0.707107 -0.672499
v 0.345492 -0.809017 -0.475529
v 0.181636 -0.809017 -0.559017
v 0.475529 -0.809017 -0.345492
v 0.559017 -0.809017 -0.181636
v 0.587786 -0.809017 0.000000
v 0.559017 -0.809017 0.181636
v 0.475528 -0.809017 0.345492
v 0.345492 -0.809017 0.475528
v 0.181636 -0.809017 0.559017
v 0.000000 -0.809017 0.587785
v -0.181636 -0.809017 0.559017
v -0.345492 -0.809017 0.475528
v -0.475528 -0.809017 0.345492
v -0.559017 -0.809017 0.181636
v -0.587785 -0.809017 0.000000
v -0.559017 -0.809017 -0.181636
v -0.475528 -0.809017 -0.345491
v -0.345492 -0.809017 -0.475528
v -0.181636 -0.809017 -0.559017
v 0.000000 -0.809017 -0.587785
v 0.181636 -0.809017 -0.559017
v 0.266849 -0.891007 -0.367286
v 0.140291 -0.891007 -0.431771
v 0.367286 -0.891007 -0.266849
v 0.431771 -0.891007 -0.140291
v 0.453991 -0.891007 0.000000
v 0.431771 -0.891007 0.140291
v 0.367286 -0.891007 0.266849
v 0.266849 -0.891007 0.367286
v 0.140291 -0.891007 0.431771
v 0.000000 -0.891007 0.453991
v -0.140291 -0.891007 0.431771
v -0.266849 -0.891007 0.367286
v -0.367286 -0.891007 0.266849
v -0.431771 -0.891007 0.140291
v -0.453991 -0.891007 0.000000
v -0.431771 -0.891007 -0.140291
v -0.367286 -0.891007 -0.266849
v -0.266849 -0.891007 -0.367286
v -0.140291 -0.891007 -0.431771
v 0.000000 -0.891007 -0.453991
v 0.140291 -0.891007 -0.431771
v 0.181636 -0.951057 -0.250000
v 0.095492 -0.951057 -0.293893
v 0.250000 -0.951057 -0.181636
v 0.293893 -0.951057 -0.095492
v 0.309017 -0.951057 0.000000
v 0.293893 -0.951057 0.095492
v 0.250000 -0.951057 0.181636
v 0.181636 -0.951057 0.250000
v 0.095492 -0.951057 0.293893
v 0.000000 -0.951057 0.309017
v -0.095492 -0.951057 0.293893
v -0.181636 -0.951057 0.250000
v -0.250000 -0.951057 0.181636
v -0.293893 -0.951057 0.095492
v -0.309017 -0.951057 0.000000
v -0.293893 -0.951057 -0.095491
v -0.250000 -0.951057 -0.181636
v -0.181636 -0.951057 -0.250000
v -0.095492 -0.951057 -0.293893
v 0.000000 -0.951057 -0.309017
v 0.095492 -0.951057 -0.293893
vn -0.1177 -0.9797 0.1621
vn -0.0000 -1.0000 -0.0000
vn -0.0619 -0.9797 0.1905
vn -0.1621 -0.9797 0.1177
vn -0.1905 -0.9797 0.0619
vn -0.2003 -0.9797 -0.0000
vn -0.1905 -0.9797 -0.0619
vn -0.1621 -0.9797 -0.1177
vn -0.1177 -0.9797 -0.1621
vn -0.0619 -0.9797 -0.1905
vn -0.0000 -0.9797 -0.2003
vn 0.0619 -0.9797 -0.1905
vn 0.1177 -0.9797 -0.1621
vn 0.1621 -0.9797 -0.1178
vn 0.1905 -0.9797 -0.0619
vn 0.2003 -0.9797 -0.0000
vn 0.1905 -0.9797 0.0619
vn 0.1621 -0.9797 0.1178
vn 0.1177 -0.9797 0.1621
vn 0.0619 -0.9797 0.1905
vn -0.0000 -0.9797 0.2003
vn -0.0619 0.9797 0.1905
vn -0.0000 1.0000 -0.0000
vn -0.1178 0.9797 0.1621
vn -0.1621 0.9797 0.1178
vn -0.1905 0.9797 0.0619
vn -0.2003 0.9797 -0.0000
vn -0.1905 0.9797 -0.0619
vn -0.1621 0.9797 -0.1177
vn -0.1177 0.9797 -0.1621
vn -0.0619 0.9797 -0.1905
vn -0.0000 0.9797 -0.2003
vn 0.0619 0.9797 -0.1905
vn 0.1177 0.9797 -0.1621
vn 0.1621 0.9797 -0.1177
vn 0.1905 0.9797 -0.0619
vn 0.2003 0.9797 -0.0000
vn 0.1905 0.9797 0.0619
vn 0.1621 0.9797 0.1178
vn 0.1177 0.9797 0.1621
vn 0.0619 0.9797 0.1905
vn -0.0000 0.9797 0.2003
vn -0.1961 -0.9427 0.2699
vn -0.1031 -0.9427 0.3173
vn -0.2699 -0.9427 0.1961
vn -0.3173 -0.9427 0.1031
vn -0.3336 -0.9427 -0.0000
vn -0.3173 -0.9427 -0.1031
vn -0.2699 -0.9427 -0.1961
vn -0.1961 -0.9427 -0.2699
vn -0.1031 -0.9427 -0.3173
vn -0.0000 -0.9427 -0.3336
vn 0.1031 -0.9427 -0.3173
vn 0.1961 -0.9427 -0.2699
vn 0.2699 -0.9427 -0.1961
vn 0.3173 -0.9427 -0.1031
vn 0.3336 -0.9427 -0.0000
vn 0.3173 -0.9427 0.1031
vn 0.2699 -0.9427 0.1961
vn 0.1961 -0.9427 0.2699
vn 0.1031 -0.9427 0.3173
vn -0.0000 -0.9427 0.3336
vn -0.2767 -0.8823 0.3808
vn -0.1455 -0.8823 0.4477
vn -0.3808 -0.8823 0.2767
vn -0.4477 -0.8823 0.1455
vn -0.4707 -0.8823 -0.0000
vn -0.4477 -0.8823 -0.1455
vn -0.3809 -0.8823 -0.2767
vn -0.2767 -0.8823 -0.3808
vn -0.1455 -0.8823 -0.4477
vn -0.0000 -0.8823 -0.4707
vn 0.1455 -0.8823 -0.4477
vn 0.2767 -0.8823 -0.3808
vn 0.3808 -0.8823 -0.2767
vn 0.4477 -0.8823 -0.1455
vn 0.4707 -0.8823 -0.0000
vn 0.4477 -0.8823 0.1455
vn 0.3808 -0.8823 0.2767
vn 0.2767 -0.8823 0.3808
vn 0.1455 -0.8823 0.4477
vn -0.0000 -0.8823 0.4707
vn -0.1454 -0.8823 0.4477
vn -0.3524 -0.8003 0.4851
vn -0.1853 -0.8003 0.5703
vn -0.4851 -0.8003 0.3524
vn -0.5703 -0.8003 0.1853
vn -0.5997 -0.8003 -0.0000
vn -0.5703 -0.8003 -0.1853
vn -0.4851 -0.8003 -0.3524
vn -0.3524 -0.8003 -0.4851
vn -0.1853 -0.8003 -0.5703
vn -0.0000 -0.8003 -0.5997
vn 0.1853 -0.8003 -0.5703
vn 0.3524 -0.8003 -0.4851
vn 0.4851 -0.8003 -0.3524
vn 0.5703 -0.8003 -0.1853
vn 0.5997 -0.8003 -0.0000
vn 0.5703 -0.8003 0.1853
vn 0.4851 -0.8003 0.3525
vn 0.3524 -0.8003 0.4851
vn 0.1853 -0.8003 0.5703
vn -0.0000 -0.8003 0.5997
vn -0.4205 -0.6988 0.5787
vn -0.2211 -0.6988 0.6803
vn -0.5787 -0.6988 0.4204
vn -0.6803 -0.6988 0.2210
vn -0.7153 -0.6988 -0.0000
vn -0.6803 -0.6989 -0.2210
vn -0.5787 -0.6988 -0.4205
vn -0.4205 -0.6988 -0.5787
vn -0.2210 -0.6988 -0.6803
vn -0.0000 -0.6988 -0.7153
vn 0.2210 -0.6989 -0.6803
vn 0.4205 -0.6988 -0.5787
vn 0.5787 -0.6988 -0.4205
vn 0.6803 -0.6988 -0.2210
vn 0.7153 -0.6988 -0.0000
vn 0.6803 -0.6988 0.2210
vn 0.5787 -0.6988 0.4205
vn 0.4205 -0.6988 0.5787
vn 0.2210 -0.6988 0.6803
vn -0.0000 -0.6988 0.7153
vn -0.2210 -0.6988 0.6803
vn -0.4786 -0.5804 0.6588
vn -0.2517 -0.5804 0.7744
vn -0.6588 -0.5804 0.4787
vn -0.7745 -0.5804 0.2516
vn -0.8143 -0.5804 -0.0000
vn -0.7745 -0.5804 -0.2516
vn -0.6588 -0.5804 -0.4786
vn -0.4786 -0.5804 -0.6588
vn -0.2516 -0.5804 -0.7745
vn -0.0000 -0.5804 -0.8143
vn 0.2516 -0.5804 -0.7745
vn 0.4786 -0.5805 -0.6588
vn 0.6588 -0.5804 -0.4787
vn 0.7745 -0.5804 -0.2516
vn 0.8143 -0.5804 -0.0000
vn 0.7745 -0.5804 0.2516
vn 0.6588 -0.5804 0.4787
vn 0.4787 -0.5804 0.6588
vn 0.2516 -0.5804 0.7745
vn -0.0000 -0.5804 0.8143
vn -0.2515 -0.5804 0.7745
vn -0.5255 -0.4480 0.7233
vn -0.2764 -0.4480 0.8502
vn -0.7233 -0.4480 0.5255
vn -0.8503 -0.4480 0.2763
vn -0.8940 -0.4480 -0.0000
vn -0.8502 -0.4481 -0.2763
vn -0.7233 -0.4481 -0.5255
vn -0.5255 -0.4481 -0.7233
vn -0.2763 -0.4480 -0.8503
vn -0.0000 -0.4480 -0.8940
vn 0.2763 -0.4480 -0.8503
vn 0.5255 -0.4481 -0.7233
vn 0.7233 -0.4480 -0.5255
vn 0.8503 -0.4479 -0.2763
vn 0.8940 -0.4480 -0.0000
vn 0.8502 -0.4481 0.2763
vn 0.7233 -0.4480 0.5255
vn 0.5255 -0.4481 0.7233
vn 0.2763 -0.4481 0.8502
vn -0.0000 -0.4480 0.8940
vn -0.2761 -0.4480 0.8503
vn -0.5598 -0.3049 0.7705
vn -0.2944 -0.3048 0.9058
vn -0.7705 -0.3049 0.5598
vn -0.9058 -0.3049 0.2943
vn -0.9524 -0.3049 -0.0000
vn -0.9058 -0.3049 -0.2943
vn -0.7704 -0.3051 -0.5598
vn -0.5598 -0.3049 -0.7705
vn -0.2943 -0.3049 -0.9058
vn -0.0000 -0.3049 -0.9524
vn 0.2943 -0.3049 -0.9058
vn 0.5598 -0.3049 -0.7705
vn 0.7705 -0.3049 -0.5598
vn 0.9058 -0.3049 -0.2943
vn 0.9524 -0.3049 -0.0000
vn 0.9058 -0.3049 0.2943
vn 0.7705 -0.3049 0.5598
vn 0.5598 -0.3049 0.7705
vn 0.2943 -0.3048 0.9058
vn -0.0000 -0.3048 0.9524
vn -0.2942 -0.3048 0.9058
vn -0.5807 -0.1546 0.7993
vn -0.3054 -0.1542 0.9396
vn -0.7993 -0.1543 0.5807
vn -0.9397 -0.1541 0.3053
vn -0.9880 -0.1542 -0.0000
vn -0.9397 -0.1541 -0.3053
vn -0.7993 -0.1543 -0.5808
vn -0.5807 -0.1543 -0.7993
vn -0.3053 -0.1542 -0.9397
vn -0.0000 -0.1544 -0.9880
vn 0.3053 -0.1542 -0.9397
vn 0.5807 -0.1546 -0.7993
vn 0.7993 -0.1543 -0.5807
vn 0.9397 -0.1543 -0.3053
vn 0.9880 -0.1544 -0.0000
vn 0.9397 -0.1543 0.3053
vn 0.7993 -0.1541 0.5808
vn 0.5807 -0.1543 0.7993
vn 0.3053 -0.1542 0.9397
vn -0.0000 -0.1543 0.9880
vn -0.3052 -0.1542 0.9397
vn -0.5878 -0.0000 0.8090
vn -0.3091 -0.0000 0.9510
vn -0.8090 -0.0000 0.5878
vn -0.9511 -0.0000 0.3090
vn -1.0000 -0.0000 -0.0000
vn -0.9511 -0.0000 -0.3090
vn -0.8090 -0.0000 -0.5878
vn -0.5878 -0.0000 -0.8090
vn -0.3090 -0.0000 -0.9511
vn -0.0000 -0.0000 -1.0000
vn 0.3090 -0.0000 -0.9511
vn 0.5878 -0.0000 -0.8090
vn 0.8090 -0.0000 -0.5878
vn 0.9511 -0.0000 -0.3090
vn 1.0000 -0.0000 -0.0000
vn 0.9511 -0.0000 0.3090
vn 0.8090 -0.0000 0.5878
vn 0.5878 -0.0000 0.8090
vn 0.3090 -0.0000 0.9511
vn -0.0000 -0.0000 1.0000
vn -0.3089 -0.0000 0.9511
vn -0.5807 0.1542 0.7994
vn -0.3055 0.1542 0.9396
vn -0.7993 0.1543 0.5807
vn -0.9397 0.1544 0.3053
vn -0.9880 0.1542 -0.0000
vn -0.9397 0.1541 -0.3053
vn -0.7993 0.1544 -0.5808
vn -0.5807 0.1545 -0.7993
vn -0.3053 0.1543 -0.9397
vn -0.0000 0.1545 -0.9880
vn 0.3053 0.1545 -0.9396
vn 0.5807 0.1544 -0.7993
vn 0.7993 0.1543 -0.5807
vn 0.9397 0.1543 -0.3053
vn 0.9880 0.1543 -0.0000
vn 0.9397 0.1543 0.3053
vn 0.7993 0.1543 0.5807
vn 0.5807 0.1541 0.7994
vn 0.3053 0.1543 0.9397
vn -0.0000 0.1544 0.9880
vn -0.3053 0.1542 0.9397
vn -0.5598 0.3049 0.7705
vn -0.2943 0.3048 0.9058
vn -0.7705 0.3049 0.5598
vn -0.9058 0.3049 0.2943
vn -0.9524 0.3049 -0.0000
vn -0.9058 0.3048 -0.2943
vn -0.7705 0.3049 -0.5598
vn -0.5598 0.3048 -0.7705
vn -0.2943 0.3049 -0.9058
vn -0.0000 0.3049 -0.9524
vn 0.2943 0.3049 -0.9058
vn 0.5598 0.3049 -0.7705
vn 0.7705 0.3049 -0.5598
vn 0.9058 0.3049 -0.2943
vn 0.9524 0.3048 -0.0000
vn 0.9058 0.3049 0.2943
vn 0.7705 0.3049 0.5598
vn 0.5598 0.3049 0.7705
vn 0.2943 0.3050 0.9057
vn -0.0000 0.3049 0.9524
vn -0.2942 0.3048 0.9058
vn -0.5255 0.4480 0.7233
vn -0.2764 0.4480 0.8502
vn -0.7233 0.4480 0.5255
vn -0.8502 0.4481 0.2763
vn -0.8940 0.4480 -0.0000
vn -0.8503 0.4479 -0.2763
vn -0.7233 0.4481 -0.5255
vn -0.5255 0.4481 -0.7233
vn -0.2763 0.4480 -0.8503
vn -0.0000 0.4480 -0.8940
vn 0.2763 0.4480 -0.8503
vn 0.5255 0.4481 -0.7233
vn 0.7233 0.4481 -0.5255
vn 0.8502 0.4481 -0.2763
vn 0.8940 0.4480 -0.0000
vn 0.8503 0.4479 0.2763
vn 0.7233 0.4481 0.5255
vn 0.5255 0.4480 0.7233
vn 0.2763 0.4480 0.8503
vn -0.0000 0.4480 0.8940
vn -0.2761 0.4480 0.8503
vn -0.4786 0.5804 0.6588
vn -0.2518 0.5804 0.7744
vn -0.6588 0.5804 0.4786
vn -0.7745 0.5804 0.2516
vn -0.8143 0.5804 -0.0000
vn -0.7745 0.5804 -0.2516
vn -0.6588 0.5804 -0.4786
vn -0.4786 0.5805 -0.6588
vn -0.2516 0.5804 -0.7745
vn -0.0000 0.5804 -0.8143
vn 0.2516 0.5804 -0.7745
vn 0.4786 0.5805 -0.6588
vn 0.6588 0.5804 -0.4786
vn 0.7745 0.5804 -0.2516
vn 0.8143 0.5804 -0.0000
vn 0.7745 0.5804 0.2516
vn 0.6588 0.5804 0.4786
vn 0.4786 0.5804 0.6588
vn 0.2516 0.5804 0.7745
vn -0.0000 0.5804 0.8143
vn -0.2515 0.5804 0.7745
vn -0.4205 0.6988 0.5787
vn -0.2212 0.6988 0.6803
vn -0.5787 0.6988 0.4205
vn -0.6803 0.6988 0.2210
vn -0.7153 0.6988 -0.0000
vn -0.6803 0.6988 -0.2210
vn -0.5787 0.6988 -0.4205
vn -0.4205 0.6988 -0.5787
vn -0.2210 0.6989 -0.6803
vn -0.0000 0.6988 -0.7153
vn 0.2210 0.6988 -0.6803
vn 0.4205 0.6988 -0.5787
vn 0.5787 0.6988 -0.4205
vn 0.6803 0.6989 -0.2210
vn 0.7153 0.6988 -0.0000
vn 0.6803 0.6988 0.2210
vn 0.5787 0.6988 0.4205
vn 0.4205 0.6988 0.5787
vn 0.2210 0.6989 0.6803
vn -0.0000 0.6988 0.7153
vn -0.2209 0.6988 0.6803
vn -0.3525 0.8003 0.4851
vn -0.1853 0.8003 0.5703
vn -0.4851 0.8003 0.3525
vn -0.5703 0.8003 0.1853
vn -0.5997 0.8003 -0.0000
vn -0.5703 0.8003 -0.1853
vn -0.4851 0.8003 -0.3525
vn -0.3525 0.8003 -0.4851
vn -0.1853 0.8003 -0.5703
vn -0.0000 0.8003 -0.5996
vn 0.1853 0.8003 -0.5703
vn 0.3525 0.8003 -0.4851
vn 0.4851 0.8003 -0.3525
vn 0.5703 0.8003 -0.1853
vn 0.5996 0.8003 -0.0000
vn 0.5703 0.8003 0.1853
vn 0.4851 0.8003 0.3525
vn 0.3525 0.8003 0.4851
vn 0.1853 0.8003 0.5703
vn -0.0000 0.8003 0.5996
vn -0.2767 0.8823 0.3809
vn -0.1455 0.8823 0.4477
vn -0.3808 0.8823 0.2767
vn -0.4477 0.8823 0.1455
vn -0.4707 0.8823 -0.0000
vn -0.4477 0.8823 -0.1455
vn -0.3809 0.8823 -0.2767
vn -0.2767 0.8823 -0.3808
vn -0.1455 0.8823 -0.4477
vn -0.0000 0.8823 -0.4707
vn 0.1455 0.8823 -0.4477
vn 0.2767 0.8823 -0.3808
vn 0.3808 0.8823 -0.2767
vn 0.4477 0.8823 -0.1455
vn 0.4707 0.8823 -0.0000
vn 0.4477 0.8823 0.1455
vn 0.3809 0.8823 0.2767
vn 0.2767 0.8823 0.3808
vn 0.1455 0.8823 0.4477
vn -0.0000 0.8823 0.4707
vn -0.1961 0.9427 0.2699
vn -0.1031 0.9427 0.3172
vn -0.2699 0.9427 0.1961
vn -0.3173 0.9427 0.1031
vn -0.3336 0.9427 -0.0000
vn -0.3173 0.9427 -0.1031
vn -0.2699 0.9427 -0.1961
vn -0.1961 0.9427 -0.2699
vn -0.1031 0.9427 -0.3173
vn -0.0000 0.9427 -0.3336
vn 0.1031 0.9427 -0.3173
vn 0.1961 0.9427 -0.2699
vn 0.2699 0.9427 -0.1961
vn 0.3173 0.9427 -0.1031
vn 0.3336 0.9427 -0.0000
vn 0.3173 0.9427 0.1031
vn 0.2699 0.9427 0.1961
vn 0.1961 0.9427 0.2699
vn 0.1031 0.9427 0.3173
vn -0.0000 0.9427 0.3336
vn -0.1030 0.9427 0.3173
vt 0.050000 0.950000
vt 0.025000 1.000000
vt 0.000000 0.950000
vt 0.100000 0.950000
vt 0.075000 1.000000
vt 0.150000 0.950000
vt 0.125000 1.000000
vt 0.200000 0.950000
vt 0.175000 1.000000
vt 0.250000 0.950000
vt 0.225000 1.000000
vt 0.300000 0.950000
vt 0.275000 1.000000
vt 0.350000 0.950000
vt 0.325000 1.000000
vt 0.400000 0.950000
vt 0.375000 1.000000
vt 0.450000 0.950000
vt 0.425000 1.000000
vt 0.500000 0.950000
vt 0.475000 1.000000
vt 0.550000 0.950000
vt 0.525000 1.000000
vt 0.600000 0.950000
vt 0.575000 1.000000
vt 0.650000 0.950000
vt 0.625000 1.000000
vt 0.700000 0.950000
vt 0.675000 1.000000
vt 0.750000 0.950000
vt 0.725000 1.000000
vt 0.800000 0.950000
vt 0.775000 1.000000
vt 0.850000 0.950000
vt 0.825000 1.000000
vt 0.900000 0.950000
vt 0.875000 1.000000
vt 0.950000 0.950000
vt 0.925000 1.000000
vt 1.000000 0.950000
vt 0.975000 1.000000
vt 0.000000 0.050000
vt 0.025000 0.000000
vt 0.050000 0.050000
vt 0.075000 0.000000
vt 0.100000 0.050000
vt 0.125000 0.000000
vt 0.150000 0.050000
vt 0.175000 0.000000
vt 0.200000 0.050000
vt 0.225000 0.000000
vt 0.250000 0.050000
vt 0.275000 0.000000
vt 0.300000 0.050000
vt 0.325000 0.000000
vt 0.350000 0.050000
vt 0.375000 0.000000
vt 0.400000 0.050000
vt 0.425000 0.000000
vt 0.450000 0.050000
vt 0.475000 0.000000
vt 0.500000 0.050000
vt 0.525000 0.000000
vt 0.550000 0.050000
vt 0.575000 0.000000
vt 0.600000 0.050000
vt 0.625000 0.000000
vt 0.650000 0.050000
vt 0.675000 0.000000
vt 0.700000 0.050000
vt 0.725000 0.000000
vt 0.750000 0.050000
vt 0.775000 0.000000
vt 0.800000 0.050000
vt 0.825000 0.000000
vt 0.850000 0.050000
vt 0.875000 0.000000
vt 0.900000 0.050000
vt 0.925000 0.000000
vt 0.950000 0.050000
vt 0.975000 0.000000
vt 1.000000 0.050000
vt 0.050000 0.900000
vt 0.000000 0.900000
vt 0.100000 0.900000
vt 0.150000 0.900000
vt 0.200000 0.900000
vt 0.250000 0.900000
vt 0.300000 0.900000
vt 0.350000 0.900000
vt 0.400000 0.900000
vt 0.450000 0.900000
vt 0.500000 0.900000
vt 0.550000 0.900000
vt 0.600000 0.900000
vt 0.650000 0.900000
vt 0.700000 0.900000
vt 0.750000 0.900000
vt 0.800000 0.900000
vt 0.850000 0.900000
vt 0.900000 0.900000
vt 0.950000 0.900000
vt 1.000000 0.900000
vt 0.050000 0.850000
vt 0.000000 0.850000
vt 0.100000 0.850000
vt 0.150000 0.850000
vt 0.200000 0.850000
vt 0.250000 0.850000
vt 0.300000 0.850000
vt 0.350000 0.850000
vt 0.400000 0.850000
vt 0.450000 0.850000
vt 0.500000 0.850000
vt 0.550000 0.850000
vt 0.600000 0.850000
vt 0.650000 0.850000
vt 0.700000 0.850000
vt 0.750000 0.850000
vt 0.800000 0.850000
vt 0.850000 0.850000
vt 0.900000 0.850000
vt 0.950000 0.850000
vt 1.000000 0.850000
vt 0.050000 0.800000
vt 0.000000 0.800000
vt 0.100000 0.800000
vt 0.150000 0.800000
vt 0.200000 0.800000
vt 0.250000 0.800000
vt 0.300000 0.800000
vt 0.350000 0.800000
vt 0.400000 0.800000
vt 0.450000 0.800000
vt 0.500000 0.800000
vt 0.550000 0.800000
vt 0.600000 0.800000
vt 0.650000 0.800000
vt 0.700000 0.800000
vt 0.750000 0.800000
vt 0.800000 0.800000
vt 0.850000 0.800000
vt 0.900000 0.800000
vt 0.950000 0.800000
vt 1.000000 0.800000
vt 0.050000 0.750000
vt 0.000000 0.750000
vt 0.100000 0.750000
vt 0.150000 0.750000
vt 0.200000 0.750000
vt 0.250000 0.750000
vt 0.300000 0.750000
vt 0.350000 0.750000
vt 0.400000 0.750000
vt 0.450000 0.750000
vt 0.500000 0.750000
vt 0.550000 0.750000
vt 0.600000 0.750000
vt 0.650000 0.750000
vt 0.700000 0.750000
vt 0.750000 0.750000
vt 0.800000 0.750000
vt 0.850000 0.750000
vt 0.900000 0.750000
vt 0.950000 0.750000
vt 1.000000 0.750000
vt 0.050000 0.700000
vt 0.000000 0.700000
vt 0.100000 0.700000
vt 0.150000 0.700000
vt 0.200000 0.700000
vt 0.250000 0.700000
vt 0.300000 0.700000
vt 0.350000 0.700000
vt 0.400000 0.700000
vt 0.450000 0.700000
vt 0.500000 0.700000
vt 0.550000 0.700000
vt 0.600000 0.700000
vt 0.650000 0.700000
vt 0.700000 0.700000
vt 0.750000 0.700000
vt 0.800000 0.700000
vt 0.850000 0.700000
vt 0.900000 0.700000
vt 0.950000 0.700000
vt 1.000000 0.700000
vt 0.050000 0.650000
vt 0.000000 0.650000
vt 0.100000 0.650000
vt 0.150000 0.650000
vt 0.200000 0.650000
vt 0.250000 0.650000
vt 0.300000 0.650000
vt 0.350000 0.650000
vt 0.400000 0.650000
vt 0.450000 0.650000
vt 0.500000 0.650000
vt 0.550000 0.650000
vt 0.600000 0.650000
vt 0.650000 0.650000
vt 0.700000 0.650000
vt 0.750000 0.650000
vt 0.800000 0.650000
vt 0.850000 0.650000
vt 0.900000 0.650000
vt 0.950000 0.650000
vt 1.000000 0.650000
vt 0.050000 0.600000
vt 0.000000 0.600000
vt 0.100000 0.600000
vt 0.150000 0.600000
vt 0.200000 0.600000
vt 0.250000 0.600000
vt 0.300000 0.600000
vt 0.350000 0.600000
vt 0.400000 0.600000
vt 0.450000 0.600000
vt 0.500000 0.600000
vt 0.550000 0.600000
vt 0.600000 0.600000
vt 0.650000 0.600000
vt 0.700000 0.600000
vt 0.750000 0.600000
vt 0.800000 0.600000
vt 0.850000 0.600000
vt 0.900000 0.600000
vt 0.950000 0.600000
vt 1.000000 0.600000
vt 0.050000 0.550000
vt 0.000000 0.550000
vt 0.100000 0.550000
vt 0.150000 0.550000
vt 0.200000 0.550000
vt 0.250000 0.550000
vt 0.300000 0.550000
vt 0.350000 0.550000
vt 0.400000 0.550000
vt 0.450000 0.550000
vt 0.500000 0.550000
vt 0.550000 0.550000
vt 0.600000 0.550000
vt 0.650000 0.550000
vt 0.700000 0.550000
vt 0.750000 0.550000
vt 0.800000 0.550000
vt 0.850000 0.550000
vt 0.900000 0.550000
vt 0.950000 0.550000
vt 1.000000 0.550000
vt 0.050000 0.500000
vt 0.000000 0.500000
vt 0.100000 0.500000
vt 0.150000 0.500000
vt 0.200000 0.500000
vt 0.250000 0.500000
vt 0.300000 0.500000
vt 0.350000 0.500000
vt 0.400000 0.500000
vt 0.450000 0.500000
vt 0.500000 0.500000
vt 0.550000 0.500000
vt 0.600000 0.500000
vt 0.650000 0.500000
vt 0.700000 0.500000
vt 0.750000 0.500000
vt 0.800000 0.500000
vt 0.850000 0.500000
vt 0.900000 0.500000
vt 0.950000 0.500000
vt 1.000000 0.500000
vt 0.050000 0.450000
vt 0.000000 0.450000
vt 0.100000 0.450000
vt 0.150000 0.450000
vt 0.200000 0.450000
vt 0.250000 0.450000
vt 0.300000 0.450000
vt 0.350000 0.450000
vt 0.400000 0.450000
vt 0.450000 0.450000
vt 0.500000 0.450000
vt 0.550000 0.450000
vt 0.600000 0.450000
vt 0.650000 0.450000
vt 0.700000 0.450000
vt 0.750000 0.450000
vt 0.800000 0.450000
vt 0.850000 0.450000
vt 0.900000 0.450000
vt 0.950000 0.450000
vt 1.000000 0.450000
vt 0.050000 0.400000
vt 0.000000 0.400000
vt 0.100000 0.400000
vt 0.150000 0.400000
vt 0.200000 0.400000
vt 0.250000 0.400000
vt 0.300000 0.400000
vt 0.350000 0.400000
vt 0.400000 0.400000
vt 0.450000 0.400000
vt 0.500000 0.400000
vt 0.550000 0.400000
vt 0.600000 0.400000
vt 0.650000 0.400000
vt 0.700000 0.400000
vt 0.750000 0.400000
vt 0.800000 0.400000
vt 0.850000 0.400000
vt 0.900000 0.400000
vt 0.950000 0.400000
vt 1.000000 0.400000
vt 0.050000 0.350000
vt 0.000000 0.350000
vt 0.100000 0.350000
vt 0.150000 0.350000
vt 0.200000 0.350000
vt 0.250000 0.350000
vt 0.300000 0.350000
vt 0.350000 0.350000
vt 0.400000 0.350000
vt 0.450000 0.350000
vt 0.500000 0.350000
vt 0.550000 0.350000
vt 0.600000 0.350000
vt 0.650000 0.350000
vt 0.700000 0.350000
vt 0.750000 0.350000
vt 0.800000 0.350000
vt 0.850000 0.350000
vt 0.900000 0.350000
vt 0.950000 0.350000
vt 1.000000 0.350000
vt 0.050000 0.300000
vt 0.000000 0.300000
vt 0.100000 0.300000
vt 0.150000 0.300000
vt 0.200000 0.300000
vt 0.250000 0.300000
vt 0.300000 0.300000
vt 0.350000 0.300000
vt 0.400000 0.300000
vt 0.450000 0.300000
vt 0.500000 0.300000
vt 0.550000 0.300000
vt 0.600000 0.300000
vt 0.650000 0.300000
vt 0.700000 0.300000
vt 0.750000 0.300000
vt 0.800000 0.300000
vt 0.850000 0.300000
vt 0.900000 0.300000
vt 0.950000 0.300000
vt 1.000000 0.300000
vt 0.050000 0.250000
vt 0.000000 0.250000
vt 0.100000 0.250000
vt 0.150000 0.250000
vt 0.200000 0.250000
vt 0.250000 0.250000
vt 0.300000 0.250000
vt 0.350000 0.250000
vt 0.400000 0.250000
vt 0.450000 0.250000
vt 0.500000 0.250000
vt 0.550000 0.250000
vt 0.600000 0.250000
vt 0.650000 0.250000
vt 0.700000 0.250000
vt 0.750000 0.250000
vt 0.800000 0.250000
vt 0.850000 0.250000
vt 0.900000 0.250000
vt 0.950000 0.250000
vt 1.000000 0.250000
vt 0.050000 0.200000
vt 0.000000 0.200000
vt 0.100000 0.200000
vt 0.150000 0.200000
vt 0.200000 0.200000
vt 0.250000 0.200000
vt 0.300000 0.200000
vt 0.350000 0.200000
vt 0.400000 0.200000
vt 0.450000 0.200000
vt 0.500000 0.200000
vt 0.550000 0.200000
vt 0.600000 0.200000
vt 0.650000 0.200000
vt 0.700000 0.200000
vt 0.750000 0.200000
vt 0.800000 0.200000
vt 0.850000 0.200000
vt 0.900000 0.200000
vt 0.950000 0.200000
vt 1.000000 0.200000
vt 0.050000 0.150000
vt 0.000000 0.150000
vt 0.100000 0.150000
vt 0.150000 0.150000
vt 0.200000 0.150000
vt 0.250000 0.150000
vt 0.300000 0.150000
vt 0.350000 0.150000
vt 0.400000 0.150000
vt 0.450000 0.150000
vt 0.500000 0.150000
vt 0.550000 0.150000
vt 0.600000 0.150000
vt 0.650000 0.150000
vt 0.700000 0.150000
vt 0.750000 0.150000
vt 0.800000 0.150000
vt 0.850000 0.150000
vt 0.900000 0.150000
vt 0.950000 0.150000
vt 1.000000 0.150000
vt 0.050000 0.100000
vt 0.000000 0.100000
vt 0.100000 0.100000
vt 0.150000 0.100000
vt 0.200000 0.100000
vt 0.250000 0.100000
vt 0.300000 0.100000
vt 0.350000 0.100000
vt 0.400000 0.100000
vt 0.450000 0.100000
vt 0.500000 0.100000
vt 0.550000 0.100000
vt 0.600000 0.100000
vt 0.650000 0.100000
vt 0.700000 0.100000
vt 0.750000 0.100000
vt 0.800000 0.100000
vt 0.850000 0.100000
vt 0.900000 0.100000
vt 0.950000 0.100000
vt 1.000000 0.100000
s 1
usemtl Material_Planet_Sun.006
f 1/1/1 3/2/2 2/3/3
f 4/4/4 5/5/2 1/1/1
f 6/6/5 7/7/2 4/4/4
f 8/8/6 9/9/2 6/6/5
f 10/10/7 11/11/2 8/8/6
f 12/12/8 13/13/2 10/10/7
f 14/14/9 15/15/2 12/12/8
f 16/16/10 17/17/2 14/14/9
f 18/18/11 19/19/2 16/16/10
f 20/20/12 21/21/2 18/18/11
f 22/22/13 23/23/2 20/20/12
f 24/24/14 25/25/2 22/22/13
f 26/26/15 27/27/2 24/24/14
f 28/28/16 29/29/2 26/26/15
f 30/30/17 31/31/2 28/28/16
f 32/32/18 33/33/2 30/30/17
f 34/34/19 35/35/2 32/32/18
f 36/36/20 37/37/2 34/34/19
f 38/38/21 39/39/2 36/36/20
f 40/40/3 41/41/2 38/38/21
f 42/42/22 44/43/23 43/44/24
f 43/44/24 46/45/23 45/46/25
f 45/46/25 48/47/23 47/48/26
f 47/48/26 50/49/23 49/50/27
f 49/50/27 52/51/23 51/52/28
f 51/52/28 54/53/23 53/54/29
f 53/54/29 56/55/23 55/56/30
f 55/56/30 58/57/23 57/58/31
f 57/58/31 60/59/23 59/60/32
f 59/60/32 62/61/23 61/62/33
f 61/62/33 64/63/23 63/64/34
f 63/64/34 66/65/23 65/66/35
f 65/66/35 68/67/23 67/68/36
f 67/68/36 70/69/23 69/70/37
f 69/70/37 72/71/23 71/72/38
f 71/72/38 74/73/23 73/74/39
f 73/74/39 76/75/23 75/76/40
f 75/76/40 78/77/23 77/78/41
f 77/78/41 80/79/23 79/80/42
f 79/80/42 82/81/23 81/82/22
f 2/3/3 83/83/43 1/1/1
f 2/3/3 84/84/44 83/83/43
f 1/1/1 85/85/45 4/4/4
f 1/1/1 83/83/43 85/85/45
f 4/4/4 86/86/46 6/6/5
f 4/4/4 85/85/45 86/86/46
f 6/6/5 87/87/47 8/8/6
f 6/6/5 86/86/46 87/87/47
f 8/8/6 88/88/48 10/10/7
f 8/8/6 87/87/47 88/88/48
f 10/10/7 89/89/49 12/12/8
f 10/10/7 88/88/48 89/89/49
f 12/12/8 90/90/50 14/14/9
f 12/12/8 89/89/49 90/90/50
f 14/14/9 91/91/51 16/16/10
f 14/14/9 90/90/50 91/91/51
f 16/16/10 92/92/52 18/18/11
f 16/16/10 91/91/51 92/92/52
f 18/18/11 93/93/53 20/20/12
f 18/18/11 92/92/52 93/93/53
f 20/20/12 94/94/54 22/22/13
f 20/20/12 93/93/53 94/94/54
f 22/22/13 95/95/55 24/24/14
f 22/22/13 94/94/54 95/95/55
f 24/24/14 96/96/56 26/26/15
f 24/24/14 95/95/55 96/96/56
f 26/26/15 97/97/57 28/28/16
f 26/26/15 96/96/56 97/97/57
f 28/28/16 98/98/58 30/30/17
f 28/28/16 97/97/57 98/98/58
f 30/30/17 99/99/59 32/32/18
f 30/30/17 98/98/58 99/99/59
f 32/32/18 100/100/60 34/34/19
f 32/32/18 99/99/59 100/100/60
f 34/34/19 101/101/61 36/36/20
f 34/34/19 100/100/60 101/101/61
f 36/36/20 102/102/62 38/38/21
f 36/36/20 101/101/61 102/102/62
f 38/38/21 103/103/44 40/40/3
f 38/38/21 102/102/62 103/103/44
f 84/84/44 104/104/63 83/83/43
f 84/84/44 105/105/64 104/104/63
f 83/83/43 106/106/65 85/85/45
f 83/83/43 104/104/63 106/106/65
f 85/85/45 107/107/66 86/86/46
f 85/85/45 106/106/65 107/107/66
f 86/86/46 108/108/67 87/87/47
f 86/86/46 107/107/66 108/108/67
f 87/87/47 109/109/68 88/88/48
f 87/87/47 108/108/67 109/109/68
f 88/88/48 110/110/69 89/89/49
f 88/88/48 109/109/68 110/110/69
f 89/89/49 111/111/70 90/90/50
f 89/89/49 110/110/69 111/111/70
f 90/90/50 112/112/71 91/91/51
f 90/90/50 111/111/70 112/112/71
f 91/91/51 113/113/72 92/92/52
f 91/91/51 112/112/71 113/113/72
f 92/92/52 114/114/73 93/93/53
f 92/92/52 113/113/72 114/114/73
f 93/93/53 115/115/74 94/94/54
f 93/93/53 114/114/73 115/115/74
f 94/94/54 116/116/75 95/95/55
f 94/94/54 115/115/74 116/116/75
f 95/95/55 117/117/76 96/96/56
f 95/95/55 116/116/75 117/117/76
f 96/96/56 118/118/77 97/97/57
f 96/96/56 117/117/76 118/118/77
f 97/97/57 119/119/78 98/98/58
f 97/97/57 118/118/77 119/119/78
f 98/98/58 120/120/79 99/99/59
f 98/98/58 119/119/78 120/120/79
f 99/99/59 121/121/80 100/100/60
f 99/99/59 120/120/79 121/121/80
f 100/100/60 122/122/81 101/101/61
f 100/100/60 121/121/80 122/122/81
f 101/101/61 123/123/82 102/102/62
f 101/101/61 122/122/81 123/123/82
f 102/102/62 124/124/83 103/103/44
f 102/102/62 123/123/82 124/124/83
f 105/105/64 125/125/84 104/104/63
f 105/105/64 126/126/85 125/125/84
f 104/104/63 127/127/86 106/106/65
f 104/104/63 125/125/84 127/127/86
f 106/106/65 128/128/87 107/107/66
f 106/106/65 127/127/86 128/128/87
f 107/107/66 129/129/88 108/108/67
f 107/107/66 128/128/87 129/129/88
f 108/108/67 130/130/89 109/109/68
f 108/108/67 129/129/88 130/130/89
f 109/109/68 131/131/90 110/110/69
f 109/109/68 130/130/89 131/131/90
f 110/110/69 132/132/91 111/111/70
f 110/110/69 131/131/90 132/132/91
f 111/111/70 133/133/92 112/112/71
f 111/111/70 132/132/91 133/133/92
f 112/112/71 134/134/93 113/113/72
f 112/112/71 133/133/92 134/134/93
f 113/113/72 135/135/94 114/114/73
f 113/113/72 134/134/93 135/135/94
f 114/114/73 136/136/95 115/115/74
f 114/114/73 135/135/94 136/136/95
f 115/115/74 137/137/96 116/116/75
f 115/115/74 136/136/95 137/137/96
f 116/116/75 138/138/97 117/117/76
f 116/116/75 137/137/96 138/138/97
f 117/117/76 139/139/98 118/118/77
f 117/117/76 138/138/97 139/139/98
f 118/118/77 140/140/99 119/119/78
f 118/118/77 139/139/98 140/140/99
f 119/119/78 141/141/100 120/120/79
f 119/119/78 140/140/99 141/141/100
f 120/120/79 142/142/101 121/121/80
f 120/120/79 141/141/100 142/142/101
f 121/121/80 143/143/102 122/122/81
f 121/121/80 142/142/101 143/143/102
f 122/122/81 144/144/103 123/123/82
f 122/122/81 143/143/102 144/144/103
f 123/123/82 145/145/85 124/124/83
f 123/123/82 144/144/103 145/145/85
f 126/126/85 146/146/104 125/125/84
f 126/126/85 147/147/105 146/146/104
f 125/125/84 148/148/106 127/127/86
f 125/125/84 146/146/104 148/148/106
f 127/127/86 149/149/107 128/128/87
f 127/127/86 148/148/106 149/149/107
f 128/128/87 150/150/108 129/129/88
f 128/128/87 149/149/107 150/150/108
f 129/129/88 151/151/109 130/130/89
f 129/129/88 150/150/108 151/151/109
f 130/130/89 152/152/110 131/131/90
f 130/130/89 151/151/109 152/152/110
f 131/131/90 153/153/111 132/132/91
f 131/131/90 152/152/110 153/153/111
f 132/132/91 154/154/112 133/133/92
f 132/132/91 153/153/111 154/154/112
f 133/133/92 155/155/113 134/134/93
f 133/133/92 154/154/112 155/155/113
f 134/134/93 156/156/114 135/135/94
f 134/134/93 155/155/113 156/156/114
f 135/135/94 157/157/115 136/136/95
f 135/135/94 156/156/114 157/157/115
f 136/136/95 158/158/116 137/137/96
f 136/136/95 157/157/115 158/158/116
f 137/137/96 159/159/117 138/138/97
f 137/137/96 158/158/116 159/159/117
f 138/138/97 160/160/118 139/139/98
f 138/138/97 159/159/117 160/160/118
f 139/139/98 161/161/119 140/140/99
f 139/139/98 160/160/118 161/161/119
f 140/140/99 162/162/120 141/141/100
f 140/140/99 161/161/119 162/162/120
f 141/141/100 163/163/121 142/142/101
f 141/141/100 162/162/120 163/163/121
f 142/142/101 164/164/122 143/143/102
f 142/142/101 163/163/121 164/164/122
f 143/143/102 165/165/123 144/144/103
f 143/143/102 164/164/122 165/165/123
f 144/144/103 166/166/124 145/145/85
f 144/144/103 165/165/123 166/166/124
f 147/147/105 167/167/125 146/146/104
f 147/147/105 168/168/126 167/167/125
f 146/146/104 169/169/127 148/148/106
f 146/146/104 167/167/125 169/169/127
f 148/148/106 170/170/128 149/149/107
f 148/148/106 169/169/127 170/170/128
f 149/149/107 171/171/129 150/150/108
f 149/149/107 170/170/128 171/171/129
f 150/150/108 172/172/130 151/151/109
f 150/150/108 171/171/129 172/172/130
f 151/151/109 173/173/131 152/152/110
f 151/151/109 172/172/130 173/173/131
f 152/152/110 174/174/132 153/153/111
f 152/152/110 173/173/131 174/174/132
f 153/153/111 175/175/133 154/154/112
f 153/153/111 174/174/132 175/175/133
f 154/154/112 176/176/134 155/155/113
f 154/154/112 175/175/133 176/176/134
f 155/155/113 177/177/135 156/156/114
f 155/155/113 176/176/134 177/177/135
f 156/156/114 178/178/136 157/157/115
f 156/156/114 177/177/135 178/178/136
f 157/157/115 179/179/137 158/158/116
f 157/157/115 178/178/136 179/179/137
f 158/158/116 180/180/138 159/159/117
f 158/158/116 179/179/137 180/180/138
f 159/159/117 181/181/139 160/160/118
f 159/159/117 180/180/138 181/181/139
f 160/160/118 182/182/140 161/161/119
f 160/160/118 181/181/139 182/182/140
f 161/161/119 183/183/141 162/162/120
f 161/161/119 182/182/140 183/183/141
f 162/162/120 184/184/142 163/163/121
f 162/162/120 183/183/141 184/184/142
f 163/163/121 185/185/143 164/164/122
f 163/163/121 184/184/142 185/185/143
f 164/164/122 186/186/144 165/165/123
f 164/164/122 185/185/143 186/186/144
f 165/165/123 187/187/145 166/166/124
f 165/165/123 186/186/144 187/187/145
f 168/168/126 188/188/146 167/167/125
f 168/168/126 189/189/147 188/188/146
f 167/167/125 190/190/148 169/169/127
f 167/167/125 188/188/146 190/190/148
f 169/169/127 191/191/149 170/170/128
f 169/169/127 190/190/148 191/191/149
f 170/170/128 192/192/150 171/171/129
f 170/170/128 191/191/149 192/192/150
f 171/171/129 193/193/151 172/172/130
f 171/171/129 192/192/150 193/193/151
f 172/172/130 194/194/152 173/173/131
f 172/172/130 193/193/151 194/194/152
f 173/173/131 195/195/153 174/174/132
f 173/173/131 194/194/152 195/195/153
f 174/174/132 196/196/154 175/175/133
f 174/174/132 195/195/153 196/196/154
f 175/175/133 197/197/155 176/176/134
f 175/175/133 196/196/154 197/197/155
f 176/176/134 198/198/156 177/177/135
f 176/176/134 197/197/155 198/198/156
f 177/177/135 199/199/157 178/178/136
f 177/177/135 198/198/156 199/199/157
f 178/178/136 200/200/158 179/179/137
f 178/178/136 199/199/157 200/200/158
f 179/179/137 201/201/159 180/180/138
f 179/179/137 200/200/158 201/201/159
f 180/180/138 202/202/160 181/181/139
f 180/180/138 201/201/159 202/202/160
f 181/181/139 203/203/161 182/182/140
f 181/181/139 202/202/160 203/203/161
f 182/182/140 204/204/162 183/183/141
f 182/182/140 203/203/161 204/204/162
f 183/183/141 205/205/163 184/184/142
f 183/183/141 204/204/162 205/205/163
f 184/184/142 206/206/164 185/185/143
f 184/184/142 205/205/163 206/206/164
f 185/185/143 207/207/165 186/186/144
f 185/185/143 206/206/164 207/207/165
f 186/186/144 208/208/166 187/187/145
f 186/186/144 207/207/165 208/208/166
f 189/189/147 209/209/167 188/188/146
f 189/189/147 210/210/168 209/209/167
f 188/188/146 211/211/169 190/190/148
f 188/188/146 209/209/167 211/211/169
f 190/190/148 212/212/170 191/191/149
f 190/190/148 211/211/169 212/212/170
f 191/191/149 213/213/171 192/192/150
f 191/191/149 212/212/170 213/213/171
f 192/192/150 214/214/172 193/193/151
f 192/192/150 213/213/171 214/214/172
f 193/193/151 215/215/173 194/194/152
f 193/193/151 214/214/172 215/215/173
f 194/194/152 216/216/174 195/195/153
f 194/194/152 215/215/173 216/216/174
f 195/195/153 217/217/175 196/196/154
f 195/195/153 216/216/174 217/217/175
f 196/196/154 218/218/176 197/197/155
f 196/196/154 217/217/175 218/218/176
f 197/197/155 219/219/177 198/198/156
f 197/197/155 218/218/176 219/219/177
f 198/198/156 220/220/178 199/199/157
f 198/198/156 219/219/177 220/220/178
f 199/199/157 221/221/179 200/200/158
f 199/199/157 220/220/178 221/221/179
f 200/200/158 222/222/180 201/201/159
f 200/200/158 221/221/179 222/222/180
f 201/201/159 223/223/181 202/202/160
f 201/201/159 222/222/180 223/223/181
f 202/202/160 224/224/182 203/203/161
f 202/202/160 223/223/181 224/224/182
f 203/203/161 225/225/183 204/204/162
f 203/203/161 224/224/182 225/225/183
f 204/204/162 226/226/184 205/205/163
f 204/204/162 225/225/183 226/226/184
f 205/205/163 227/227/185 206/206/164
f 205/205/163 226/226/184 227/227/185
f 206/206/164 228/228/186 207/207/165
f 206/206/164 227/227/185 228/228/186
f 207/207/165 229/229/187 208/208/166
f 207/207/165 228/228/186 229/229/187
f 210/210/168 230/230/188 209/209/167
f 210/210/168 231/231/189 230/230/188
f 209/209/167 232/232/190 211/211/169
f 209/209/167 230/230/188 232/232/190
f 211/211/169 233/233/191 212/212/170
f 211/211/169 232/232/190 233/233/191
f 212/212/170 234/234/192 213/213/171
f 212/212/170 233/233/191 234/234/192
f 213/213/171 235/235/193 214/214/172
f 213/213/171 234/234/192 235/235/193
f 214/214/172 236/236/194 215/215/173
f 214/214/172 235/235/193 236/236/194
f 215/215/173 237/237/195 216/216/174
f 215/215/173 236/236/194 237/237/195
f 216/216/174 238/238/196 217/217/175
f 216/216/174 237/237/195 238/238/196
f 217/217/175 239/239/197 218/218/176
f 217/217/175 238/238/196 239/239/197
f 218/218/176 240/240/198 219/219/177
f 218/218/176 239/239/197 240/240/198
f 219/219/177 241/241/199 220/220/178
f 219/219/177 240/240/198 241/241/199
f 220/220/178 242/242/200 221/221/179
f 220/220/178 241/241/199 242/242/200
f 221/221/179 243/243/201 222/222/180
f 221/221/179 242/242/200 243/243/201
f 222/222/180 244/244/202 223/223/181
f 222/222/180 243/243/201 244/244/202
f 223/223/181 245/245/203 224/224/182
f 223/223/181 244/244/202 245/245/203
f 224/224/182 246/246/204 225/225/183
f 224/224/182 245/245/203 246/246/204
f 225/225/183 247/247/205 226/226/184
f 225/225/183 246/246/204 247/247/205
f 226/226/184 248/248/206 227/227/185
f 226/226/184 247/247/205 248/248/206
f 227/227/185 249/249/207 228/228/186
f 227/227/185 248/248/206 249/249/207
f 228/228/186 250/250/208 229/229/187
f 228/228/186 249/249/207 250/250/208
f 231/231/189 251/251/209 230/230/188
f 231/231/189 252/252/210 251/251/209
f 230/230/188 253/253/211 232/232/190
f 230/230/188 251/251/209 253/253/211
f 232/232/190 254/254/212 233/233/191
f 232/232/190 253/253/211 254/254/212
f 233/233/191 255/255/213 234/234/192
f 233/233/191 254/254/212 255/255/213
f 234/234/192 256/256/214 235/235/193
f 234/234/192 255/255/213 256/256/214
f 235/235/193 257/257/215 236/236/194
f 235/235/193 256/256/214 257/257/215
f 236/236/194 258/258/216 237/237/195
f 236/236/194 257/257/215 258/258/216
f 237/237/195 259/259/217 238/238/196
f 237/237/195 258/258/216 259/259/217
f 238/238/196 260/260/218 239/239/197
f 238/238/196 259/259/217 260/260/218
f 239/239/197 261/261/219 240/240/198
f 239/239/197 260/260/218 261/261/219
f 240/240/198 262/262/220 241/241/199
f 240/240/198 261/261/219 262/262/220
f 241/241/199 263/263/221 242/242/200
f 241/241/199 262/262/220 263/263/221
f 242/242/200 264/264/222 243/243/201
f 242/242/200 263/263/221 264/264/222
f 243/243/201 265/265/223 244/244/202
f 243/243/201 264/264/222 265/265/223
f 244/244/202 266/266/224 245/245/203
f 244/244/202 265/265/223 266/266/224
f 245/245/203 267/267/225 246/246/204
f 245/245/203 266/266/224 267/267/225
f 246/246/204 268/268/226 247/247/205
f 246/246/204 267/267/225 268/268/226
f 247/247/205 269/269/227 248/248/206
f 247/247/205 268/268/226 269/269/227
f 248/248/206 270/270/228 249/249/207
f 248/248/206 269/269/227 270/270/228
f 249/249/207 271/271/229 250/250/208
f 249/249/207 270/270/228 271/271/229
f 252/252/210 272/272/230 251/251/209
f 252/252/210 273/273/231 272/272/230
f 251/251/209 274/274/232 253/253/211
f 251/251/209 272/272/230 274/274/232
f 253/253/211 275/275/233 254/254/212
f 253/253/211 274/274/232 275/275/233
f 254/254/212 276/276/234 255/255/213
f 254/254/212 275/275/233 276/276/234
f 255/255/213 277/277/235 256/256/214
f 255/255/213 276/276/234 277/277/235
f 256/256/214 278/278/236 257/257/215
f 256/256/214 277/277/235 278/278/236
f 257/257/215 279/279/237 258/258/216
f 257/257/215 278/278/236 279/279/237
f 258/258/216 280/280/238 259/259/217
f 258/258/216 279/279/237 280/280/238
f 259/259/217 281/281/239 260/260/218
f 259/259/217 280/280/238 281/281/239
f 260/260/218 282/282/240 261/261/219
f 260/260/218 281/281/239 282/282/240
f 261/261/219 283/283/241 262/262/220
f 261/261/219 282/282/240 283/283/241
f 262/262/220 284/284/242 263/263/221
f 262/262/220 283/283/241 284/284/242
f 263/263/221 285/285/243 264/264/222
f 263/263/221 284/284/242 285/285/243
f 264/264/222 286/286/244 265/265/223
f 264/264/222 285/285/243 286/286/244
f 265/265/223 287/287/245 266/266/224
f 265/265/223 286/286/244 287/287/245
f 266/266/224 288/288/246 267/267/225
f 266/266/224 287/287/245 288/288/246
f 267/267/225 289/289/247 268/268/226
f 267/267/225 288/288/246 289/289/247
f 268/268/226 290/290/248 269/269/227
f 268/268/226 289/289/247 290/290/248
f 269/269/227 291/291/249 270/270/228
f 269/269/227 290/290/248 291/291/249
f 270/270/228 292/292/250 271/271/229
f 270/270/228 291/291/249 292/292/250
f 273/273/231 293/293/251 272/272/230
f 273/273/231 294/294/252 293/293/251
f 272/272/230 295/295/253 274/274/232
f 272/272/230 293/293/251 295/295/253
f 274/274/232 296/296/254 275/275/233
f 274/274/232 295/295/253 296/296/254
f 275/275/233 297/297/255 276/276/234
f 275/275/233 296/296/254 297/297/255
f 276/276/234 298/298/256 277/277/235
f 276/276/234 297/297/255 298/298/256
f 277/277/235 299/299/257 278/278/236
f 277/277/235 298/298/256 299/299/257
f 278/278/236 300/300/258 279/279/237
f 278/278/236 299/299/257 300/300/258
f 279/279/237 301/301/259 280/280/238
f 279/279/237 300/300/258 301/301/259
f 280/280/238 302/302/260 281/281/239
f 280/280/238 301/301/259 302/302/260
f 281/281/239 303/303/261 282/282/240
f 281/281/239 302/302/260 303/303/261
f 282/282/240 304/304/262 283/283/241
f 282/282/240 303/303/261 304/304/262
f 283/283/241 305/305/263 284/284/242
f 283/283/241 304/304/262 305/305/263
f 284/284/242 306/306/264 285/285/243
f 284/284/242 305/305/263 306/306/264
f 285/285/243 307/307/265 286/286/244
f 285/285/243 306/306/264 307/307/265
f 286/286/244 308/308/266 287/287/245
f 286/286/244 307/307/265 308/308/266
f 287/287/245 309/309/267 288/288/246
f 287/287/245 308/308/266 309/309/267
f 288/288/246 310/310/268 289/289/247
f 288/288/246 309/309/267 310/310/268
f 289/289/247 311/311/269 290/290/248
f 289/289/247 310/310/268 311/311/269
f 290/290/248 312/312/270 291/291/249
f 290/290/248 311/311/269 312/312/270
f 291/291/249 313/313/271 292/292/250
f 291/291/249 312/312/270 313/313/271
f 294/294/252 314/314/272 293/293/251
f 294/294/252 315/315/273 314/314/272
f 293/293/251 316/316/274 295/295/253
f 293/293/251 314/314/272 316/316/274
f 295/295/253 317/317/275 296/296/254
f 295/295/253 316/316/274 317/317/275
f 296/296/254 318/318/276 297/297/255
f 296/296/254 317/317/275 318/318/276
f 297/297/255 319/319/277 298/298/256
f 297/297/255 318/318/276 319/319/277
f 298/298/256 320/320/278 299/299/257
f 298/298/256 319/319/277 320/320/278
f 299/299/257 321/321/279 300/300/258
f 299/299/257 320/320/278 321/321/279
f 300/300/258 322/322/280 301/301/259
f 300/300/258 321/321/279 322/322/280
f 301/301/259 323/323/281 302/302/260
f 301/301/259 322/322/280 323/323/281
f 302/302/260 324/324/282 303/303/261
f 302/302/260 323/323/281 324/324/282
f 303/303/261 325/325/283 304/304/262
f 303/303/261 324/324/282 325/325/283
f 304/304/262 326/326/284 305/305/263
f 304/304/262 325/325/283 326/326/284
f 305/305/263 327/327/285 306/306/264
f 305/305/263 326/326/284 327/327/285
f 306/306/264 328/328/286 307/307/265
f 306/306/264 327/327/285 328/328/286
f 307/307/265 329/329/287 308/308/266
f 307/307/265 328/328/286 329/329/287
f 308/308/266 330/330/288 309/309/267
f 308/308/266 329/329/287 330/330/288
f 309/309/267 331/331/289 310/310/268
f 309/309/267 330/330/288 331/331/289
f 310/310/268 332/332/290 311/311/269
f 310/310/268 331/331/289 332/332/290
f 311/311/269 333/333/291 312/312/270
f 311/311/269 332/332/290 333/333/291
f 312/312/270 334/334/292 313/313/271
f 312/312/270 333/333/291 334/334/292
f 315/315/273 335/335/293 314/314/272
f 315/315/273 336/336/294 335/335/293
f 314/314/272 337/337/295 316/316/274
f 314/314/272 335/335/293 337/337/295
f 316/316/274 338/338/296 317/317/275
f 316/316/274 337/337/295 338/338/296
f 317/317/275 339/339/297 318/318/276
f 317/317/275 338/338/296 339/339/297
f 318/318/276 340/340/298 319/319/277
f 318/318/276 339/339/297 340/340/298
f 319/319/277 341/341/299 320/320/278
f 319/319/277 340/340/298 341/341/299
f 320/320/278 342/342/300 321/321/279
f 320/320/278 341/341/299 342/342/300
f 321/321/279 343/343/301 322/322/280
f 321/321/279 342/342/300 343/343/301
f 322/322/280 344/344/302 323/323/281
f 322/322/280 343/343/301 344/344/302
f 323/323/281 345/345/303 324/324/282
f 323/323/281 344/344/302 345/345/303
f 324/324/282 346/346/304 325/325/283
f 324/324/282 345/345/303 346/346/304
f 325/325/283 347/347/305 326/326/284
f 325/325/283 346/346/304 347/347/305
f 326/326/284 348/348/306 327/327/285
f 326/326/284 347/347/305 348/348/306
f 327/327/285 349/349/307 328/328/286
f 327/327/285 348/348/306 349/349/307
f 328/328/286 350/350/308 329/329/287
f 328/328/286 349/349/307 350/350/308
f 329/329/287 351/351/309 330/330/288
f 329/329/287 350/350/308 351/351/309
f 330/330/288 352/352/310 331/331/289
f 330/330/288 351/351/309 352/352/310
f 331/331/289 353/353/311 332/332/290
f 331/331/289 352/352/310 353/353/311
f 332/332/290 354/354/312 333/333/291
f 332/332/290 353/353/311 354/354/312
f 333/333/291 355/355/313 334/334/292
f 333/333/291 354/354/312 355/355/313
f 336/336/294 356/356/314 335/335/293
f 336/336/294 357/357/315 356/356/314
f 335/335/293 358/358/316 337/337/295
f 335/335/293 356/356/314 358/358/316
f 337/337/295 359/359/317 338/338/296
f 337/337/295 358/358/316 359/359/317
f 338/338/296 360/360/318 339/339/297
f 338/338/296 359/359/317 360/360/318
f 339/339/297 361/361/319 340/340/298
f 339/339/297 360/360/318 361/361/319
f 340/340/298 362/362/320 341/341/299
f 340/340/298 361/361/319 362/362/320
f 341/341/299 363/363/321 342/342/300
f 341/341/299 362/362/320 363/363/321
f 342/342/300 364/364/322 343/343/301
f 342/342/300 363/363/321 364/364/322
f 343/343/301 365/365/323 344/344/302
f 343/343/301 364/364/322 365/365/323
f 344/344/302 366/366/324 345/345/303
f 344/344/302 365/365/323 366/366/324
f 345/345/303 367/367/325 346/346/304
f 345/345/303 366/366/324 367/367/325
f 346/346/304 368/368/326 347/347/305
f 346/346/304 367/367/325 368/368/326
f 347/347/305 369/369/327 348/348/306
f 347/347/305 368/368/326 369/369/327
f 348/348/306 370/370/328 349/349/307
f 348/348/306 369/369/327 370/370/328
f 349/349/307 371/371/329 350/350/308
f 349/349/307 370/370/328 371/371/329
f 350/350/308 372/372/330 351/351/309
f 350/350/308 371/371/329 372/372/330
f 351/351/309 373/373/331 352/352/310
f 351/351/309 372/372/330 373/373/331
f 352/352/310 374/374/332 353/353/311
f 352/352/310 373/373/331 374/374/332
f 353/353/311 375/375/333 354/354/312
f 353/353/311 374/374/332 375/375/333
f 354/354/312 376/376/334 355/355/313
f 354/354/312 375/375/333 376/376/334
f 357/357/315 377/377/335 356/356/314
f 357/357/315 378/378/336 377/377/335
f 356/356/314 379/379/337 358/358/316
f 356/356/314 377/377/335 379/379/337
f 358/358/316 380/380/338 359/359/317
f 358/358/316 379/379/337 380/380/338
f 359/359/317 381/381/339 360/360/318
f 359/359/317 380/380/338 381/381/339
f 360/360/318 382/382/340 361/361/319
f 360/360/318 381/381/339 382/382/340
f 361/361/319 383/383/341 362/362/320
f 361/361/319 382/382/340 383/383/341
f 362/362/320 384/384/342 363/363/321
f 362/362/320 383/383/341 384/384/342
f 363/363/321 385/385/343 364/364/322
f 363/363/321 384/384/342 385/385/343
f 364/364/322 386/386/344 365/365/323
f 364/364/322 385/385/343 386/386/344
f 365/365/323 387/387/345 366/366/324
f 365/365/323 386/386/344 387/387/345
f 366/366/324 388/388/346 367/367/325
f 366/366/324 387/387/345 388/388/346
f 367/367/325 389/389/347 368/368/326
f 367/367/325 388/388/346 389/389/347
f 368/368/326 390/390/348 369/369/327
f 368/368/326 389/389/347 390/390/348
f 369/369/327 391/391/349 370/370/328
f 369/369/327 390/390/348 391/391/349
f 370/370/328 392/392/350 371/371/329
f 370/370/328 391/391/349 392/392/350
f 371/371/329 393/393/351 372/372/330
f 371/371/329 392/392/350 393/393/351
f 372/372/330 394/394/352 373/373/331
f 372/372/330 393/393/351 394/394/352
f 373/373/331 395/395/353 374/374/332
f 373/373/331 394/394/352 395/395/353
f 374/374/332 396/396/354 375/375/333
f 374/374/332 395/395/353 396/396/354
f 375/375/333 397/397/336 376/376/334
f 375/375/333 396/396/354 397/397/336
f 378/378/336 398/398/355 377/377/335
f 378/378/336 399/399/356 398/398/355
f 377/377/335 400/400/357 379/379/337
f 377/377/335 398/398/355 400/400/357
f 379/379/337 401/401/358 380/380/338
f 379/379/337 400/400/357 401/401/358
f 380/380/338 402/402/359 381/381/339
f 380/380/338 401/401/358 402/402/359
f 381/381/339 403/403/360 382/382/340
f 381/381/339 402/402/359 403/403/360
f 382/382/340 404/404/361 383/383/341
f 382/382/340 403/403/360 404/404/361
f 383/383/341 405/405/362 384/384/342
f 383/383/341 404/404/361 405/405/362
f 384/384/342 406/406/363 385/385/343
f 384/384/342 405/405/362 406/406/363
f 385/385/343 407/407/364 386/386/344
f 385/385/343 406/406/363 407/407/364
f 386/386/344 408/408/365 387/387/345
f 386/386/344 407/407/364 408/408/365
f 387/387/345 409/409/366 388/388/346
f 387/387/345 408/408/365 409/409/366
f 388/388/346 410/410/367 389/389/347
f 388/388/346 409/409/366 410/410/367
f 389/389/347 411/411/368 390/390/348
f 389/389/347 410/410/367 411/411/368
f 390/390/348 412/412/369 391/391/349
f 390/390/348 411/411/368 412/412/369
f 391/391/349 413/413/370 392/392/350
f 391/391/349 412/412/369 413/413/370
f 392/392/350 414/414/371 393/393/351
f 392/392/350 413/413/370 414/414/371
f 393/393/351 415/415/372 394/394/352
f 393/393/351 414/414/371 415/415/372
f 394/394/352 416/416/373 395/395/353
f 394/394/352 415/415/372 416/416/373
f 395/395/353 417/417/374 396/396/354
f 395/395/353 416/416/373 417/417/374
f 396/396/354 418/418/356 397/397/336
f 396/396/354 417/417/374 418/418/356
f 399/399/356 419/419/375 398/398/355
f 399/399/356 420/420/376 419/419/375
f 398/398/355 421/421/377 400/400/357
f 398/398/355 419/419/375 421/421/377
f 400/400/357 422/422/378 401/401/358
f 400/400/357 421/421/377 422/422/378
f 401/401/358 423/423/379 402/402/359
f 401/401/358 422/422/378 423/423/379
f 402/402/359 424/424/380 403/403/360
f 402/402/359 423/423/379 424/424/380
f 403/403/360 425/425/381 404/404/361
f 403/403/360 424/424/380 425/425/381
f 404/404/361 426/426/382 405/405/362
f 404/404/361 425/425/381 426/426/382
f 405/405/362 427/427/383 406/406/363
f 405/405/362 426/426/382 427/427/383
f 406/406/363 428/428/384 407/407/364
f 406/406/363 427/427/383 428/428/384
f 407/407/364 429/429/385 408/408/365
f 407/407/364 428/428/384 429/429/385
f 408/408/365 430/430/386 409/409/366
f 408/408/365 429/429/385 430/430/386
f 409/409/366 431/431/387 410/410/367
f 409/409/366 430/430/386 431/431/387
f 410/410/367 432/432/388 411/411/368
f 410/410/367 431/431/387 432/432/388
f 411/411/368 433/433/389 412/412/369
f 411/411/368 432/432/388 433/433/389
f 412/412/369 434/434/390 413/413/370
f 412/412/369 433/433/389 434/434/390
f 413/413/370 435/435/391 414/414/371
f 413/413/370 434/434/390 435/435/391
f 414/414/371 436/436/392 415/415/372
f 414/414/371 435/435/391 436/436/392
f 415/415/372 437/437/393 416/416/373
f 415/415/372 436/436/392 437/437/393
f 416/416/373 438/438/394 417/417/374
f 416/416/373 437/437/393 438/438/394
f 417/417/374 439/439/395 418/418/356
f 417/417/374 438/438/394 439/439/395
f 420/420/376 43/44/24 419/419/375
f 420/420/376 42/42/22 43/44/24
f 419/419/375 45/46/25 421/421/377
f 419/419/375 43/44/24 45/46/25
f 421/421/377 47/48/26 422/422/378
f 421/421/377 45/46/25 47/48/26
f 422/422/378 49/50/27 423/423/379
f 422/422/378 47/48/26 49/50/27
f 423/423/379 51/52/28 424/424/380
f 423/423/379 49/50/27 51/52/28
f 424/424/380 53/54/29 425/425/381
f 424/424/380 51/52/28 53/54/29
f 425/425/381 55/56/30 426/426/382
f 425/425/381 53/54/29 55/56/30
f 426/426/382 57/58/31 427/427/383
f 426/426/382 55/56/30 57/58/31
f 427/427/383 59/60/32 428/428/384
f 427/427/383 57/58/31 59/60/32
f 428/428/384 61/62/33 429/429/385
f 428/428/384 59/60/32 61/62/33
f 429/429/385 63/64/34 430/430/386
f 429/429/385 61/62/33 63/64/34
f 430/430/386 65/66/35 431/431/387
f 430/430/386 63/64/34 65/66/35
f 431/431/387 67/68/36 432/432/388
f 431/431/387 65/66/35 67/68/36
f 432/432/388 69/70/37 433/433/389
f 432/432/388 67/68/36 69/70/37
f 433/433/389 71/72/38 434/434/390
f 433/433/389 69/70/37 71/72/38
f 434/434/390 73/74/39 435/435/391
f 434/434/390 71/72/38 73/74/39
f 435/435/391 75/76/40 436/436/392
f 435/435/391 73/74/39 75/76/40
f 436/436/392 77/78/41 437/437/393
f 436/436/392 75/76/40 77/78/41
f 437/437/393 79/80/42 438/438/394
f 437/437/393 77/78/41 79/80/42
f 438/438/394 81/82/22 439/439/395
f 438/438/394 79/80/42 81/82/22
